<svg width="400" height="400" viewBox="0 0 400 400" xmlns="http://www.w3.org/2000/svg">
  <!-- Background circle -->
  <circle cx="200" cy="200" r="180" fill="#2d5a3d" opacity="0.9"/>
  
  <!-- Butler's head -->
  <ellipse cx="200" cy="140" rx="45" ry="50" fill="#d4a574"/>
  
  <!-- Hair -->
  <path d="M155 120 Q200 100 245 120 Q240 110 200 105 Q160 110 155 120" fill="#2c1810"/>
  
  <!-- Eyes -->
  <ellipse cx="185" cy="135" rx="8" ry="6" fill="#000"/>
  <ellipse cx="215" cy="135" rx="8" ry="6" fill="#000"/>
  
  <!-- Eyebrows -->
  <path d="M175 125 Q185 120 195 125" stroke="#2c1810" stroke-width="3" fill="none"/>
  <path d="M205 125 Q215 120 225 125" stroke="#2c1810" stroke-width="3" fill="none"/>
  
  <!-- Mustache -->
  <path d="M185 155 Q200 150 215 155 Q210 160 200 158 Q190 160 185 155" fill="#2c1810"/>
  
  <!-- Nose -->
  <ellipse cx="200" cy="145" rx="4" ry="8" fill="#c49464"/>
  
  <!-- Mouth -->
  <path d="M190 165 Q200 170 210 165" stroke="#8b4513" stroke-width="2" fill="none"/>
  
  <!-- Neck -->
  <rect x="185" y="185" width="30" height="25" fill="#d4a574"/>
  
  <!-- Bow tie -->
  <polygon points="190,210 210,210 200,220" fill="#000"/>
  <rect x="195" y="205" width="10" height="10" fill="#fff"/>
  
  <!-- Shirt collar -->
  <path d="M170 210 L185 210 L200 225 L215 210 L230 210 L230 250 L170 250 Z" fill="#fff"/>
  
  <!-- Jacket -->
  <path d="M160 240 L185 240 L200 250 L215 240 L240 240 L250 320 L150 320 Z" fill="#1a1a1a"/>
  
  <!-- Jacket lapels -->
  <path d="M160 240 L180 260 L185 240" fill="#333"/>
  <path d="M240 240 L220 260 L215 240" fill="#333"/>
  
  <!-- Buttons -->
  <circle cx="200" cy="270" r="3" fill="#fff"/>
  <circle cx="200" cy="290" r="3" fill="#fff"/>
  <circle cx="200" cy="310" r="3" fill="#fff"/>
  
  <!-- Arms -->
  <ellipse cx="140" cy="280" rx="20" ry="40" fill="#1a1a1a"/>
  <ellipse cx="260" cy="280" rx="20" ry="40" fill="#1a1a1a"/>
  
  <!-- Hands -->
  <ellipse cx="130" cy="320" rx="12" ry="15" fill="#d4a574"/>
  <ellipse cx="270" cy="320" rx="12" ry="15" fill="#d4a574"/>
  
  <!-- Serving tray -->
  <ellipse cx="200" cy="330" rx="80" ry="15" fill="#c0c0c0"/>
  <ellipse cx="200" cy="325" rx="80" ry="15" fill="#e8e8e8"/>
  
  <!-- Tools on tray -->
  <!-- Calendar -->
  <rect x="140" y="310" width="25" height="20" fill="#ff4444" rx="2"/>
  <rect x="142" y="315" width="21" height="12" fill="#fff"/>
  <text x="152" y="325" font-family="Arial" font-size="8" fill="#000" text-anchor="middle">17</text>
  
  <!-- Calculator -->
  <rect x="175" y="310" width="20" height="25" fill="#333" rx="2"/>
  <rect x="177" y="312" width="16" height="8" fill="#000"/>
  <circle cx="180" cy="325" r="2" fill="#666"/>
  <circle cx="185" cy="325" r="2" fill="#666"/>
  <circle cx="190" cy="325" r="2" fill="#666"/>
  <rect x="185" y="320" width="3" height="3" fill="#666"/>
  <text x="187" y="323" font-family="Arial" font-size="6" fill="#fff">+</text>
  
  <!-- Arrow tools -->
  <g transform="translate(210,320)">
    <rect width="20" height="15" fill="#0066cc" rx="2"/>
    <path d="M5 7 L12 4 L12 10 Z" fill="#fff"/>
    <path d="M8 7 L15 7" stroke="#fff" stroke-width="1"/>
  </g>
  
  <g transform="translate(235,320)">
    <rect width="20" height="15" fill="#0066cc" rx="2"/>
    <path d="M8 4 L15 7 L8 10 Z" fill="#fff"/>
    <path d="M5 7 L12 7" stroke="#fff" stroke-width="1"/>
  </g>
  
  <!-- List/Notes -->
  <rect x="260" y="315" width="18" height="15" fill="#fff" rx="1"/>
  <line x1="263" y1="320" x2="275" y2="320" stroke="#333" stroke-width="1"/>
  <line x1="263" y1="323" x2="275" y2="323" stroke="#333" stroke-width="1"/>
  <line x1="263" y1="326" x2="275" y2="326" stroke="#333" stroke-width="1"/>
  <circle cx="261" cy="320" r="1" fill="#333"/>
  <circle cx="261" cy="323" r="1" fill="#333"/>
  <circle cx="261" cy="326" r="1" fill="#333"/>
</svg>